<?xml version="1.0" encoding="utf-8"?>
<!-- Generator: Adobe Illustrator 16.0.0, SVG Export Plug-In . SVG Version: 6.00 Build 0)  -->
<!DOCTYPE svg PUBLIC "-//W3C//DTD SVG 1.1//EN" "http://www.w3.org/Graphics/SVG/1.1/DTD/svg11.dtd">
<svg version="1.1" id="Calque_1" xmlns="http://www.w3.org/2000/svg" xmlns:xlink="http://www.w3.org/1999/xlink" x="0px" y="0px"
	 width="32px" height="32px" viewBox="0 0 32 32" enable-background="new 0 0 32 32" xml:space="preserve">
<g>
	<path fill="#7AA524" d="M0,30c0,1.104,0.896,2,2,2h28c1.104,0,2-0.896,2-2V2c0-1.104-0.896-2-2-2H2C0.896,0,0,0.896,0,2V30z"/>
</g>
<path fill="#FFFFFF" d="M23.479,14.092C23.268,10.141,20.006,7,16,7s-7.267,3.141-7.479,7.092C5.951,14.555,4,16.798,4,19.5
	C4,22.537,6.463,25,9.5,25h13c3.037,0,5.5-2.463,5.5-5.5C28,16.798,26.049,14.555,23.479,14.092z M15.227,20.911
	C14.111,19.6,13.368,18.764,12,17.494l0.686-0.633c0.799,0.388,1.308,0.683,2.207,1.324c1.69-1.92,2.809-2.894,4.885-4.186
	L20,14.514C18.287,16.007,17.032,17.672,15.227,20.911z"/>
</svg>
