<?xml version="1.0" encoding="utf-8"?>
<!-- Generator: Adobe Illustrator 16.0.0, SVG Export Plug-In . SVG Version: 6.00 Build 0)  -->
<!DOCTYPE svg PUBLIC "-//W3C//DTD SVG 1.1//EN" "http://www.w3.org/Graphics/SVG/1.1/DTD/svg11.dtd">
<svg version="1.1" id="Calque_1" xmlns="http://www.w3.org/2000/svg" xmlns:xlink="http://www.w3.org/1999/xlink" x="0px" y="0px"
	 width="36px" height="36px" viewBox="0 0 36 36" enable-background="new 0 0 36 36" xml:space="preserve">
<g>
	<path fill="#7AA524" d="M0,32c0,2.209,1.791,4,4,4h28c2.209,0,4-1.791,4-4V4c0-2.209-1.791-4-4-4H4C1.791,0,0,1.791,0,4V32z"/>
</g>
<path fill="#FFFFFF" d="M18,6c-4.006,0-7.267,3.141-7.479,7.092C7.951,13.555,6,15.798,6,18.5c0,3.037,2.463,5.5,5.5,5.5h13
	c3.037,0,5.5-2.463,5.5-5.5c0-2.702-1.951-4.945-4.521-5.408C25.268,9.141,22.006,6,18,6z M14,30v-2h3v-2h2v2h3v2H14z M23,28v2h3v-2
	H23z M13,28h-3v2h3V28z"/>
</svg>
