<?xml version="1.0" encoding="utf-8"?>
<!-- Generator: Adobe Illustrator 16.0.0, SVG Export Plug-In . SVG Version: 6.00 Build 0)  -->
<!DOCTYPE svg PUBLIC "-//W3C//DTD SVG 1.1//EN" "http://www.w3.org/Graphics/SVG/1.1/DTD/svg11.dtd">
<svg version="1.1" id="Calque_1" xmlns="http://www.w3.org/2000/svg" xmlns:xlink="http://www.w3.org/1999/xlink" x="0px" y="0px"
	 width="40px" height="50px" viewBox="0 0 40 50" enable-background="new 0 0 40 50" xml:space="preserve">
<path fill="#7AA524" d="M20,22.502c3.453,0,5.891,2.797,5.566,6.78C27.313,29.236,30,30.033,30,33.002c0,1.93-1.57,3.5-3.5,3.5h-13
	c-1.93,0-3.5-1.57-3.5-3.5c0-2.797,2.479-3.833,4.433-3.72C14.266,25.064,16.641,22.502,20,22.502z M20,20.502
	c-4.006,0-7.267,3.142-7.479,7.092C9.951,28.058,8,30.3,8,33.002c0,3.037,2.463,5.5,5.5,5.5h13c3.037,0,5.5-2.463,5.5-5.5
	c0-2.702-1.951-4.944-4.521-5.408C27.268,23.644,24.006,20.502,20,20.502z M16,44.502v-2h3v-2h2v2h3v2H16z M25,42.502v2h3v-2H25z
	 M15,42.502h-3v2h3V42.502z"/>
<g>
	<path fill="#7AA524" d="M8.454,5.639c-0.279-0.315-0.59-0.537-0.935-0.665C7.174,4.845,6.771,4.78,6.309,4.78
		c-0.836,0-1.441,0.158-1.815,0.474S3.933,5.99,3.933,6.519c0,0.264,0.045,0.486,0.137,0.666s0.235,0.331,0.429,0.456
		S4.941,7.87,5.242,7.954c0.3,0.085,0.66,0.171,1.078,0.259C6.745,8.301,7.13,8.396,7.475,8.499s0.638,0.232,0.88,0.391
		c0.242,0.157,0.429,0.354,0.561,0.588c0.132,0.235,0.198,0.524,0.198,0.869c0,0.33-0.066,0.62-0.198,0.869
		s-0.319,0.458-0.561,0.627s-0.534,0.295-0.875,0.38c-0.341,0.084-0.721,0.126-1.139,0.126c-0.623,0-1.184-0.097-1.683-0.291
		c-0.499-0.194-0.957-0.493-1.375-0.896l0.22-0.275c0.367,0.374,0.785,0.656,1.254,0.847c0.469,0.191,1.001,0.286,1.595,0.286
		c0.733,0,1.311-0.134,1.732-0.401s0.632-0.677,0.632-1.227c0-0.278-0.051-0.515-0.154-0.709S8.305,9.322,8.096,9.187
		S7.625,8.934,7.31,8.834C6.994,8.735,6.62,8.642,6.188,8.554c-0.425-0.088-0.803-0.18-1.133-0.275
		c-0.33-0.095-0.607-0.216-0.831-0.362C4,7.77,3.832,7.59,3.718,7.377c-0.114-0.213-0.171-0.48-0.171-0.804
		c0-0.344,0.066-0.65,0.198-0.918c0.132-0.268,0.317-0.491,0.555-0.671s0.526-0.317,0.864-0.413
		c0.337-0.095,0.715-0.143,1.133-0.143c0.506,0,0.948,0.073,1.326,0.22C8,4.796,8.347,5.03,8.663,5.353L8.454,5.639z"/>
	<path fill="#7AA524" d="M10.433,5.188V4.264h0.374v0.924H10.433z M10.433,12.294V6.573h0.374v5.721H10.433z"/>
	<path fill="#7AA524" d="M20.872,12.294h-0.373v-3.19c0-0.777-0.119-1.349-0.357-1.716c-0.238-0.366-0.604-0.55-1.094-0.55
		c-0.258,0-0.5,0.048-0.727,0.143c-0.229,0.096-0.436,0.226-0.621,0.391c-0.188,0.165-0.35,0.365-0.484,0.6
		c-0.137,0.234-0.24,0.487-0.314,0.759v3.564h-0.373v-3.19c0-0.784-0.115-1.358-0.348-1.722c-0.23-0.362-0.596-0.544-1.094-0.544
		c-0.506,0-0.949,0.172-1.33,0.517c-0.383,0.345-0.654,0.8-0.815,1.364v3.575h-0.374V6.573h0.352v1.431
		c0.249-0.484,0.564-0.858,0.946-1.122c0.381-0.264,0.803-0.396,1.266-0.396c0.482,0,0.877,0.147,1.182,0.44
		s0.486,0.682,0.545,1.166c0.549-1.07,1.305-1.606,2.266-1.606c0.609,0,1.053,0.219,1.33,0.655c0.279,0.436,0.418,1.076,0.418,1.919
		V12.294z"/>
	<path fill="#7AA524" d="M25.228,12.403c-0.249,0-0.486-0.036-0.71-0.109s-0.433-0.173-0.627-0.297
		c-0.194-0.125-0.372-0.271-0.533-0.44s-0.301-0.349-0.418-0.539v3.619h-0.374V6.573h0.353v1.188
		c0.117-0.184,0.256-0.354,0.418-0.512c0.161-0.157,0.339-0.293,0.533-0.407c0.194-0.113,0.396-0.201,0.604-0.264
		s0.424-0.094,0.644-0.094c0.403,0,0.774,0.085,1.111,0.253c0.337,0.169,0.627,0.393,0.869,0.672
		c0.242,0.278,0.431,0.596,0.566,0.951s0.203,0.717,0.203,1.083c0,0.396-0.063,0.774-0.192,1.134
		c-0.128,0.359-0.308,0.673-0.539,0.94c-0.23,0.268-0.508,0.481-0.83,0.644C25.983,12.323,25.625,12.403,25.228,12.403z
		 M25.173,12.052c0.352,0,0.671-0.075,0.957-0.226s0.527-0.349,0.726-0.594c0.198-0.246,0.353-0.524,0.462-0.836
		c0.11-0.312,0.165-0.629,0.165-0.952c0-0.337-0.063-0.663-0.187-0.979C27.171,8.15,27,7.872,26.785,7.63
		c-0.217-0.242-0.472-0.435-0.765-0.578c-0.293-0.143-0.608-0.214-0.946-0.214c-0.213,0-0.439,0.046-0.682,0.138
		s-0.468,0.212-0.677,0.362s-0.385,0.325-0.527,0.522c-0.144,0.198-0.226,0.407-0.248,0.627v1.97c0.096,0.22,0.22,0.427,0.374,0.621
		s0.328,0.363,0.522,0.506c0.194,0.144,0.405,0.257,0.633,0.341C24.696,12.01,24.931,12.052,25.173,12.052z"/>
	<path fill="#7AA524" d="M29.287,4.264h0.363v7.051c0,0.213,0.066,0.382,0.198,0.506c0.132,0.125,0.304,0.188,0.517,0.188
		c0.081,0,0.178-0.009,0.292-0.027c0.113-0.019,0.218-0.046,0.313-0.083l0.088,0.309c-0.11,0.036-0.247,0.069-0.412,0.099
		s-0.307,0.044-0.424,0.044c-0.279,0-0.505-0.086-0.677-0.259c-0.172-0.172-0.259-0.404-0.259-0.698V4.264z"/>
	<path fill="#7AA524" d="M34.226,12.403c-0.389,0-0.752-0.078-1.089-0.236c-0.338-0.157-0.633-0.374-0.886-0.648
		c-0.253-0.275-0.451-0.595-0.594-0.957c-0.144-0.363-0.215-0.75-0.215-1.161c0-0.403,0.069-0.78,0.209-1.133
		c0.139-0.352,0.334-0.66,0.583-0.924s0.539-0.473,0.869-0.627s0.689-0.231,1.078-0.231s0.751,0.077,1.089,0.231
		c0.337,0.154,0.63,0.365,0.88,0.633c0.249,0.268,0.447,0.581,0.594,0.94s0.22,0.74,0.22,1.144c0,0.015-0.002,0.044-0.005,0.088
		c-0.004,0.044-0.006,0.07-0.006,0.077h-5.126c0.022,0.353,0.103,0.681,0.242,0.984c0.139,0.305,0.317,0.566,0.533,0.787
		c0.217,0.22,0.464,0.394,0.743,0.522c0.278,0.128,0.575,0.192,0.891,0.192c0.213,0,0.42-0.027,0.621-0.083
		c0.202-0.055,0.391-0.134,0.566-0.236c0.177-0.103,0.33-0.226,0.463-0.368c0.132-0.144,0.237-0.299,0.318-0.468l0.341,0.088
		c-0.08,0.198-0.199,0.384-0.357,0.556c-0.157,0.172-0.339,0.319-0.544,0.44c-0.206,0.12-0.43,0.216-0.671,0.285
		C34.732,12.369,34.482,12.403,34.226,12.403z M36.59,9.279c-0.021-0.358-0.099-0.688-0.23-0.989s-0.307-0.562-0.522-0.781
		c-0.217-0.22-0.464-0.391-0.742-0.512c-0.279-0.121-0.58-0.182-0.902-0.182c-0.323,0-0.623,0.063-0.902,0.188
		C33.012,7.128,32.766,7.3,32.554,7.52C32.341,7.739,32.17,8,32.042,8.301c-0.129,0.301-0.204,0.627-0.226,0.979H36.59z"/>
</g>
<g>
	<path fill="#7AA524" d="M15.075,34.783v-4.26h2.892v0.863h-1.908v0.918h1.572v0.798h-1.572v1.681H15.075z"/>
	<path fill="#7AA524" d="M21.71,31.387h-1.296v3.396H19.43v-3.396h-1.302v-0.863h3.582V31.387z"/>
	<path fill="#7AA524" d="M22.197,34.783v-4.26h1.817c0.204,0,0.392,0.042,0.562,0.126s0.315,0.193,0.438,0.329
		c0.122,0.137,0.219,0.29,0.288,0.463c0.07,0.172,0.105,0.346,0.105,0.521c0,0.188-0.033,0.368-0.1,0.54
		c-0.065,0.172-0.157,0.326-0.275,0.462s-0.261,0.244-0.429,0.324s-0.354,0.12-0.559,0.12H23.18v1.374H22.197z M23.18,32.551h0.805
		c0.115,0,0.216-0.05,0.3-0.149c0.084-0.101,0.126-0.246,0.126-0.438c0-0.1-0.013-0.186-0.039-0.258s-0.062-0.132-0.105-0.18
		c-0.044-0.049-0.094-0.083-0.149-0.105c-0.057-0.021-0.112-0.033-0.168-0.033H23.18V32.551z"/>
</g>
</svg>
